<svg xmlns="http://www.w3.org/2000/svg" viewBox="0 0 750 500"><g id="freepik--background-complete--inject-42"><path d="M103.15,336.39a6.45,6.45,0,1,1-6.42-6.48A6.45,6.45,0,0,1,103.15,336.39Z" style="fill:#e0e0e0"></path><path d="M83.82,328.1a17.87,17.87,0,0,1,25.84-.34c3.29,3.32,8.44-1.78,5.15-5.1a25.19,25.19,0,0,0-36.09.29c-3.21,3.38,1.88,8.54,5.1,5.15Z" style="fill:#e0e0e0"></path><path d="M61.94,298.11c9.8-8.47,21.49-13.8,34.59-13.83a51.28,51.28,0,0,1,35.29,13.5c3.4,3.19,8.56-1.9,5.15-5.1A58.82,58.82,0,0,0,96.57,277c-15.08,0-28.47,6.2-39.73,15.93-3.54,3.06,1.58,8.19,5.1,5.15Z" style="fill:#e0e0e0"></path><path d="M70.58,314.73a35.44,35.44,0,0,1,52.09-.74c3.26,3.35,8.41-1.76,5.15-5.1a42.68,42.68,0,0,0-62.35.69c-3.16,3.42,1.93,8.58,5.11,5.15Z" style="fill:#e0e0e0"></path><polygon points="697.51 48.29 697.51 164.63 530.41 164.63 524.39 49.1 697.51 48.29" style="fill:#e0e0e0"></polygon><rect x="550.3" y="23.2" width="115.29" height="167.1" transform="translate(501.19 714.69) rotate(-90)" style="fill:#fff"></rect><path d="M692.29,165.18H523.6V48.31H692.29ZM525.18,163.6H690.7V49.9H525.18Z" style="fill:#e0e0e0"></path><rect x="542.49" y="63.43" width="130.91" height="86.64" style="fill:#fff"></rect><path d="M673.39,63.43l-.64,0-1.86,0-7.19.05-27,.1-94.23.19.38-.38c0,26.47,0,55.8,0,86.63h0l-.41-.42,130.9.09-.32.33c.07-26.37.13-48,.17-63,0-7.53.06-13.4.08-17.43,0-2,0-3.52,0-4.58s0-1.59,0-1.59,0,.5,0,1.52,0,2.55,0,4.52c0,4,0,9.86.08,17.35,0,15.11.1,36.79.17,63.25v.33h-.33l-130.9.08h-.41v-.41h0c0-30.83,0-60.16,0-86.63v-.38h.38l94.48.18,26.89.11,7.11,0,1.82,0C673.2,63.41,673.39,63.43,673.39,63.43Z" style="fill:#e0e0e0"></path><path d="M524.39,48.78a14.32,14.32,0,0,1,2.87,1.86c1.71,1.24,4,3,6.55,5s4.73,3.91,6.29,5.34a13.45,13.45,0,0,1,2.39,2.45c-.16.17-4.17-3.14-9.19-7.15S524.24,49,524.39,48.78Z" style="fill:#e0e0e0"></path><path d="M691.49,49.1c.14.18-3.79,3.53-8.79,7.49s-9.16,7-9.31,6.84,3.8-3.53,8.8-7.49S691.35,48.92,691.49,49.1Z" style="fill:#e0e0e0"></path><path d="M691.36,164.41l-18.63-15.1" style="fill:#fff"></path><path d="M672.73,149.31c.14-.18,4.43,3.06,9.57,7.22s9.2,7.7,9.06,7.88-4.43-3.06-9.58-7.23S672.59,149.48,672.73,149.31Z" style="fill:#e0e0e0"></path><path d="M524.39,164.39c-.14-.18,3.75-3.5,8.7-7.41s9.07-6.94,9.21-6.76-3.75,3.5-8.7,7.41S524.53,164.57,524.39,164.39Z" style="fill:#e0e0e0"></path><rect x="595.75" y="63.74" width="29.01" height="82.37" transform="translate(505.33 715.18) rotate(-90)" style="fill:#e0e0e0"></rect><path d="M660.6,346.86c5.88-3,12.81-3.43,19.34-2.35,3.51.58,7.17,1.63,9.56,4.26s2.84,7.28.1,9.54c-1.63,1.35-3.91,1.56-6,1.53-5.11-.06-10.79-1-14.87,2.12-2.33,1.75-3.88,4.67-6.67,5.54s-5.8-.77-7.25-3.23A11.26,11.26,0,0,1,654,356,12.67,12.67,0,0,1,660.6,346.86Z" style="fill:#ebebeb"></path><path d="M647.12,320.83c3.59,5.14,10.59,3.44,13.83.3s4.61-7.68,5.86-12c2.85-9.9,5.73-20.3,3.61-30.38a16.9,16.9,0,0,0-3.89-8.26,8.82,8.82,0,0,0-8.35-2.79c-3.53.94-5.72,4.39-7.3,7.67a72.32,72.32,0,0,0-7.16,31.09c0,5,.57,10.26,3.4,14.39" style="fill:#ebebeb"></path><path d="M637.23,328.2c3.91-4.63,4.65-11.4,2.91-17.2s-5.66-10.75-10.19-14.79a54.9,54.9,0,0,0-18.25-10.77,19.36,19.36,0,0,0-8.21-1.39,8.61,8.61,0,0,0-6.89,4.17c-1.92,3.66-.08,8.1,1.92,11.73a140.25,140.25,0,0,0,12,18.25c3.6,4.63,7.71,9.2,13.19,11.3s11.16,1.84,14.07-1.95" style="fill:#ebebeb"></path><path d="M646.87,398.35a10.6,10.6,0,0,0,.33-2.33c.16-1.7.37-3.83.62-6.37a90.88,90.88,0,0,1,1.43-9.35,72,72,0,0,1,3.4-11,40.71,40.71,0,0,1,5.63-10,21.13,21.13,0,0,1,7.13-5.92,20.08,20.08,0,0,1,6-1.87,12,12,0,0,0,2.33-.33,10.61,10.61,0,0,0-2.37,0,18.22,18.22,0,0,0-6.25,1.63,21.11,21.11,0,0,0-7.52,6,40.07,40.07,0,0,0-5.84,10.18,68.49,68.49,0,0,0-3.37,11.22,77.92,77.92,0,0,0-1.24,9.46c-.2,2.71-.28,4.9-.32,6.42A11.63,11.63,0,0,0,646.87,398.35Z" style="fill:#e0e0e0"></path><path d="M647.31,393.45a5,5,0,0,0,.06-1.08v-3.1c0-2.69,0-6.58.13-11.39.24-9.61,1.07-19.95,2.67-34.53,1.51-13.72,3.54-29.67,5.69-40.05.46-2.36.92-4.48,1.35-6.34s.78-3.47,1.12-4.77.53-2.22.72-3a4.4,4.4,0,0,0,.19-1.06,4.81,4.81,0,0,0-.38,1c-.23.78-.53,1.76-.89,3s-.81,2.89-1.28,4.74-1,4-1.5,6.33a350.91,350.91,0,0,0-6,37.16c-1.6,14.61-2.32,27.91-2.39,37.55-.05,4.82,0,8.72.17,11.41.08,1.26.14,2.28.19,3.09A4.65,4.65,0,0,0,647.31,393.45Z" style="fill:#e0e0e0"></path><path d="M647.38,367.79a22.25,22.25,0,0,0,0-3.24c-.12-2.08-.4-5.09-1-8.77A116.83,116.83,0,0,0,643.51,343a104.85,104.85,0,0,0-5.34-15.11,80.88,80.88,0,0,0-15.69-24.44,39.88,39.88,0,0,0-3.7-3.43c-.56-.48-1.06-.95-1.57-1.33l-1.43-1a19.51,19.51,0,0,0-2.73-1.74c-.15.21,3.86,2.57,8.93,8a84.81,84.81,0,0,1,15.3,24.35,119.1,119.1,0,0,1,5.37,15,126.28,126.28,0,0,1,3,12.65c.67,3.64,1.06,6.62,1.29,8.68A19.66,19.66,0,0,0,647.38,367.79Z" style="fill:#e0e0e0"></path><polygon points="622.57 413.06 625.14 448.29 670.4 448.29 672.97 413.06 622.57 413.06" style="fill:#e0e0e0"></polygon><rect x="618.2" y="399.17" width="60.17" height="13.89" style="fill:#e0e0e0"></rect><polygon points="618.2 446.94 618.2 450.79 621.03 450.79 677.38 450.79 677.38 446.94 618.2 446.94" style="fill:#ebebeb"></polygon><polygon points="623.8 457.56 621.03 450.79 675.22 450.79 671.99 457.56 623.8 457.56" style="fill:#e0e0e0"></polygon><path d="M672.13,424.57a1.28,1.28,0,0,1-.21.32c-.18.24-.4.54-.68.9l-2.63,3.38-.12.15-.11-.16-6.48-9h.37l-6.37,9-.2.28-.23-.26-7.56-9h.43l-.41.53-6.76,8.47-.23.29-.21-.3-6.38-9,.37,0-7.85,8.95-.14.16-.11-.17L624.16,425c-.26-.45-.47-.81-.63-1.1s-.21-.38-.19-.39a1.67,1.67,0,0,1,.26.35l.7,1.06c.63,1,1.49,2.35,2.58,4.05l-.25,0,7.74-9.06.19-.23.18.25c2,2.73,4.12,5.75,6.43,9h-.43l6.75-8.49.41-.53.22-.27.22.27,7.54,9-.42,0,6.44-9,.19-.27.18.27,6.34,9.05h-.23l2.75-3.28c.29-.35.54-.63.73-.85S672.12,424.56,672.13,424.57Z" style="fill:#f5f5f5"></path><path d="M673.6,412.82c0,.16-11.34.29-25.32.29S623,413,623,412.82s11.34-.28,25.33-.28S673.6,412.67,673.6,412.82Z" style="fill:#f5f5f5"></path><path d="M675.89,451.17c0,.15-12.33.28-27.53.28s-27.52-.13-27.52-.28,12.32-.28,27.52-.28S675.89,451,675.89,451.17Z" style="fill:#f5f5f5"></path><path d="M63.68,375.64v45.54h-7.6v4.95h7.6v30.48H205.82V428.87H195.29v-6h10.53v-9.06h4.68v-4.12h-5.56v-34Z" style="fill:#f5f5f5"></path><polygon points="168.08 375.77 168.08 456.1 205.82 456.1 205.82 428.37 195.29 428.37 195.29 422.83 205.82 423.02 205.82 413.96 210.59 413.96 210.5 409.28 204.94 409.14 204.94 375.64 168.08 375.77" style="fill:#e0e0e0"></polygon><path d="M170.77,425.47c0,.28-25.72.51-57.44.51s-57.45-.23-57.45-.51,25.71-.5,57.45-.5S170.77,425.2,170.77,425.47Z" style="fill:#e0e0e0"></path><path d="M170.77,420.85c0,.28-25.72.5-57.44.5s-57.45-.22-57.45-.5,25.71-.51,57.45-.51S170.77,420.57,170.77,420.85Z" style="fill:#e0e0e0"></path><path d="M178.14,408.4c0,.28-25.72.5-57.44.5s-57.44-.22-57.44-.5,25.71-.51,57.44-.51S178.14,408.12,178.14,408.4Z" style="fill:#e0e0e0"></path><path d="M178.85,442.32c0,.28-25.72.51-57.44.51S64,442.6,64,442.32s25.71-.5,57.44-.5S178.85,442.05,178.85,442.32Z" style="fill:#e0e0e0"></path></g><g id="freepik--Device--inject-42"><path d="M126.83,336.45h0a3.72,3.72,0,0,1,4.88,1.66l57.9,112.58h110a6.88,6.88,0,0,1,6.87,6.87H183.94L125.09,341.49A3.72,3.72,0,0,1,126.83,336.45Z" style="fill:#263238"></path></g><g id="freepik--Screen--inject-42"><path d="M620.43,300.77c0,.14-22.39.26-50,.26s-50-.12-50-.26,22.39-.26,50-.26S620.43,300.62,620.43,300.77Z" style="fill:#263238"></path><path d="M665.1,291.75c0,.14-26.16.26-58.41.26s-58.4-.12-58.4-.26,26.14-.26,58.4-.26S665.1,291.6,665.1,291.75Z" style="fill:#263238"></path><polygon points="423.4 331.2 182.88 331.2 220.82 134.75 460.56 137.96 423.4 331.2" style="fill:#fafafa"></polygon><polygon points="220.82 134.75 217.68 151.04 457.55 153.58 460.56 137.96 220.82 134.75" style="fill:#ebebeb"></polygon><path d="M423.4,331.2s.22-1.21.66-3.54,1.1-5.8,1.95-10.31l7.47-39.14c6.46-33.74,15.71-82,26.86-140.29l.21.26L220.82,135l.26-.21-.38,2c-13.61,70.37-26.45,136.8-37.59,194.47l-.23-.28,173.89.11,49.14.07,13,0h4.48l-1.11,0H419l-13,0-49.1.06-174,.12h-.28l.05-.28c11.13-57.67,23.95-124.1,37.54-194.48l.38-2,0-.22h.22l239.73,3.25h.26l-.05.25c-11.25,58.29-20.58,106.62-27.1,140.37-3.26,16.85-5.82,30.07-7.57,39.08-.87,4.49-1.54,7.93-2,10.26S423.4,331.2,423.4,331.2Z" style="fill:#263238"></path><path d="M327.92,306.68c0,.14-22.4.26-50,.26s-50-.12-50-.26,22.38-.27,50-.27S327.92,306.53,327.92,306.68Z" style="fill:#263238"></path><path d="M388.58,297.66c0,.14-29.73.26-66.4.26s-66.41-.12-66.41-.26,29.73-.26,66.41-.26S388.58,297.51,388.58,297.66Z" style="fill:#263238"></path><path d="M331.27,82.5c0,.15-22.39.26-50,.26s-50-.11-50-.26,22.39-.26,50-.26S331.27,82.36,331.27,82.5Z" style="fill:#263238"></path><path d="M391.94,73.48c0,.15-29.73.26-66.4.26s-66.41-.11-66.41-.26,29.72-.26,66.41-.26S391.94,73.34,391.94,73.48Z" style="fill:#263238"></path><polygon points="281.55 210.51 299.95 190.73 311.6 210.51 281.55 210.51" style="fill:#e0e0e0"></polygon><polygon points="297.13 246.34 281.55 245.91 289.37 208.01 303.88 207.89 297.13 246.34" style="fill:#e0e0e0"></polygon><polygon points="378.22 230.99 359.82 250.77 348.18 230.99 378.22 230.99" style="fill:#e0e0e0"></polygon><polygon points="362.64 195.16 378.22 195.58 370.4 233.49 355.89 233.6 362.64 195.16" style="fill:#e0e0e0"></polygon><path d="M369.86,176.53c0,.14-14.1.26-31.5.26s-31.49-.12-31.49-.26,14.1-.26,31.49-.26S369.86,176.38,369.86,176.53Z" style="fill:#e0e0e0"></path><path d="M300.43,255.53c0,.14-6.05.26-13.51.26s-13.52-.12-13.52-.26,6.05-.26,13.52-.26S300.43,255.39,300.43,255.53Z" style="fill:#e0e0e0"></path><path d="M306.94,263.06c0,.15-10.34.26-23.09.26s-23.09-.11-23.09-.26,10.34-.26,23.09-.26S306.94,262.92,306.94,263.06Z" style="fill:#e0e0e0"></path><path d="M370.9,255.53c0,.14-5,.26-11.16.26s-11.16-.12-11.16-.26,5-.26,11.16-.26S370.9,255.39,370.9,255.53Z" style="fill:#e0e0e0"></path><path d="M377.75,263.18c0,.15-10.34.26-23.09.26s-23.09-.11-23.09-.26,10.33-.26,23.09-.26S377.75,263,377.75,263.18Z" style="fill:#e0e0e0"></path></g><g id="freepik--Character--inject-42"><path d="M456.47,115.76a51.54,51.54,0,0,0-22.31,35c-1.36,9.27-.13,18.73-.75,28.09-.81,12.34-4.79,24.93-1.42,36.83,2.2,7.79,7.46,14.51,13.93,19.38s14.09,8,21.9,10.15c8.21,2.26,17.17,3.42,25.1.32,10-3.92,16.37-13.71,21.73-23.06s11-19.37,20.46-24.44" style="fill:#263238"></path><path d="M671.47,232.05c15.4-.5,19-6.72,19-6.72s-.24-16.41-.06-23c.2-7.1-.17-15.55,0-22.13-5,6.66-19.71,9-26.66,4.44s-13.43-15.87-27.13-21.8c-13.09-5.67-29.88,2.35-39.16,2.28-21.82-.16-14.35-28.93-35.19-35.43-7.19-2.24-21,.24-28.06-2.5-11-4.28-16.88-21.07-27.59-26-8.45-3.89-27.68-5.13-35.55-.19s-11.58,7-15.91,15.2L502,203.3a60.79,60.79,0,0,0,38.53,30.36c8.1,2,15.78,5.34,20.07,9.43,8.71,8.3,18.86,17.46,30.84,16.38,9.12-.83,16.67-7.55,25.59-9.63,11.09-2.6,22.38,2.23,33,6.33,10.84,4.18,23.39,7.61,33.66,2l-3.81-18.36a46,46,0,0,1-28.47-12.43C657,228.58,665.78,232.24,671.47,232.05Z" style="fill:#263238"></path><path d="M441.27,152.77c1.82-15.88,13.37-34.89,29.16-32.4l48.94,15.06a9.34,9.34,0,0,1,7.87,9.9l-14,114.32c-2.63,2.35-33.64,30.66-33.64,30.66L461.16,256.6s.81-20.18.79-20.05-20.18-4.42-23.05-31.19C437.48,192,439.25,170.42,441.27,152.77Z" style="fill:#ffbe9d"></path><path d="M447.34,173.65a3.41,3.41,0,0,0,3.1,3.61,3.27,3.27,0,0,0,3.67-2.9,3.4,3.4,0,0,0-3.1-3.6A3.25,3.25,0,0,0,447.34,173.65Z" style="fill:#263238"></path><path d="M445.72,166.41c.4.47,3.08-1.31,6.74-1.11s6.26,2.17,6.68,1.74c.2-.19-.19-1-1.31-1.93a9.39,9.39,0,0,0-5.32-1.94,9.07,9.07,0,0,0-5.4,1.44C445.94,165.42,445.52,166.2,445.72,166.41Z" style="fill:#263238"></path><path d="M482.16,175.82a3.41,3.41,0,0,0,3.11,3.61,3.27,3.27,0,0,0,3.67-2.89,3.42,3.42,0,0,0-3.11-3.61A3.26,3.26,0,0,0,482.16,175.82Z" style="fill:#263238"></path><path d="M482.24,168.38c.4.47,3.08-1.31,6.75-1.11s6.25,2.16,6.67,1.74c.21-.19-.18-1-1.31-1.93a9.36,9.36,0,0,0-5.32-1.94,9,9,0,0,0-5.39,1.44C482.47,167.39,482.05,168.17,482.24,168.38Z" style="fill:#263238"></path><path d="M466.7,193.3c0-.2-2.23-.71-5.9-1.37-.93-.15-1.81-.38-1.94-1a4.85,4.85,0,0,1,.77-2.75q1.5-3.33,3.13-7c4.36-10,7.57-18.16,7.17-18.33s-4.26,7.75-8.62,17.71c-1.06,2.45-2.06,4.79-3,7-.41,1-1.08,2.22-.68,3.65a2.4,2.4,0,0,0,1.47,1.45,6.48,6.48,0,0,0,1.58.3C464.37,193.38,466.67,193.51,466.7,193.3Z" style="fill:#263238"></path><path d="M462,236.55A67.62,67.62,0,0,0,498,228.88s-9.91,17.8-36.37,14Z" style="fill:#eb996e"></path><path d="M480.72,154.22c.31,1,4,.72,8.27,1.46s7.69,2.09,8.31,1.23c.28-.42-.28-1.39-1.63-2.42A14.53,14.53,0,0,0,483,152.44C481.43,153,480.59,153.73,480.72,154.22Z" style="fill:#263238"></path><path d="M446.21,153.92c.6.86,3.17.13,6.21.24s5.58.85,6.22,0c.28-.41-.08-1.27-1.17-2.11a9,9,0,0,0-10-.2C446.34,152.66,446,153.5,446.21,153.92Z" style="fill:#263238"></path><path d="M464.43,204.62a17.54,17.54,0,0,0,2.07,4.58,5.93,5.93,0,0,0,4.1,2.66,5.33,5.33,0,0,0,4.63-2.24,8.55,8.55,0,0,0,1.51-5.07c0-1.62-.64-3.58-2.24-3.85a4.11,4.11,0,0,0-2,.33l-8.62,3" style="fill:#eb996e"></path><path d="M467.47,211.73c0-.26,1.87.58,4.53-.33a6.48,6.48,0,0,0,3.56-2.93,6.79,6.79,0,0,0,.38-5.52,5.9,5.9,0,0,0-.67-1.3c-.32-.37-.26-.35-.63-.32s-.92.31-1.38.47l-1.41.5c-1.85.64-3.52,1.2-4.92,1.65-2.82.9-4.6,1.35-4.67,1.16s1.57-1,4.29-2.16c1.36-.58,3-1.24,4.81-2l1.4-.54a13.19,13.19,0,0,1,1.57-.56,2,2,0,0,1,1.26.09,2.33,2.33,0,0,1,.89.79,7,7,0,0,1,.87,1.64,8,8,0,0,1-.58,6.75,7.24,7.24,0,0,1-4.46,3.26,6.81,6.81,0,0,1-3.67,0C467.81,212.12,467.43,211.82,467.47,211.73Z" style="fill:#263238"></path><path d="M536.65,157.91c-.11.69-1.46,1.23-3.9,1.25a25.91,25.91,0,0,1-10-2.35,35.06,35.06,0,0,1-12.47-9.34c-1.94-2.29-3.45-4.6-5-6.22a10.27,10.27,0,0,0-2.17-1.86,7.63,7.63,0,0,0-2.44-.9,55.58,55.58,0,0,0-7.9-.46,40,40,0,0,1-22.91-8.19,28.08,28.08,0,0,1-6.91-7.48,8.54,8.54,0,0,1-1.13-2.6c-.15-.67-.09-1.13.18-1.36,1.16-1,5,2.12,11.71,5.16,1.68.73,3.52,1.48,5.53,2.13a48,48,0,0,0,6.5,1.56,44.21,44.21,0,0,0,7.23.58,46.2,46.2,0,0,1,9.78.46,17.11,17.11,0,0,1,5.9,2.34,19.36,19.36,0,0,1,4.33,3.92c2.23,2.71,3.55,5.19,4.86,7a39.11,39.11,0,0,0,8.55,8.84C532.18,154.78,536.89,156.41,536.65,157.91Z" style="fill:#263238"></path><path d="M499.41,142.82c5.48,9.54,8.75,20.75,7.15,31.64-2.08,14.06,1.68,15,7.42,10.78,14.41-10.65,11.5,15.75,15.18,23.13,4,8,13.56,11.63,22.47,12.48s18-.28,26.79,1.61c7.23,1.56,13.86,5.11,20.88,7.45s15,3.36,21.6,0c-11.31-.5-21.38-7.05-30.36-13.93s-17.85-14.5-28.68-17.77c-5.44-1.64-11.43-2.23-15.91-5.72-7.46-5.81-7.58-16.77-8-26.22-.32-7.45-1.29-15-4.3-21.82s-8.29-12.89-15.26-15.55-15.63-1.32-20.58,4.26" style="fill:#263238"></path><path d="M518.31,183.15c.42-.12,16.75-2.35,13.86,13.53s-18.25,9.71-18.19,9.25S518.31,183.15,518.31,183.15Z" style="fill:#ffbe9d"></path><path d="M518.52,200.58c.08,0,.24.25.67.54a2.78,2.78,0,0,0,2.06.42c1.79-.31,3.69-2.71,4.29-5.56a9.3,9.3,0,0,0,0-4.11,3.23,3.23,0,0,0-1.7-2.5,1.43,1.43,0,0,0-1.77.46c-.29.41-.25.74-.34.75s-.29-.32,0-1a1.83,1.83,0,0,1,.8-.88,2.1,2.1,0,0,1,1.61-.12,3.92,3.92,0,0,1,2.44,3,9.62,9.62,0,0,1,.15,4.61c-.68,3.18-2.87,5.88-5.28,6.12a3,3,0,0,1-2.46-.88C518.48,201,518.46,200.6,518.52,200.58Z" style="fill:#eb996e"></path><path d="M508.22,107.46s-.71-.4-2-1.12a35.26,35.26,0,0,0-5.68-2.52,34.76,34.76,0,0,0-9-1.79,33.64,33.64,0,0,0-11.15,1.15A34,34,0,0,0,470.27,108,34.82,34.82,0,0,0,460,119.39c-.72,1.28-1.07,2-1.12,2a2.86,2.86,0,0,1,.22-.55,16.07,16.07,0,0,1,.72-1.55,31,31,0,0,1,3.42-5.25,32.89,32.89,0,0,1,28.32-12.49,34,34,0,0,1,9.09,1.92,30.69,30.69,0,0,1,5.66,2.69c.65.37,1.1.73,1.43.94A2.61,2.61,0,0,1,508.22,107.46Z" style="fill:#455a64"></path><path d="M690.51,210s-2.8.48-7.91.85a84.44,84.44,0,0,1-9.35.11,50.85,50.85,0,0,1-5.81-.65,31.68,31.68,0,0,1-6.33-1.72,26.67,26.67,0,0,1-6.33-3.47,50.45,50.45,0,0,1-5.78-5.27,50.69,50.69,0,0,0-6.12-5.61,26.21,26.21,0,0,0-7.78-4,15.52,15.52,0,0,0-4.44-.85,25.12,25.12,0,0,0-4.64.3,53.47,53.47,0,0,0-9.33,2.43c-3.11,1.08-6.21,2.35-9.33,3.69a26.41,26.41,0,0,1-10.13,2.31,27,27,0,0,1-18.89-6.88c-4.93-4.49-8.3-10-12.75-14.08a24.37,24.37,0,0,0-7.27-4.82,14.67,14.67,0,0,0-8.07-.93,35.52,35.52,0,0,0-7.38,2.33,48.49,48.49,0,0,1-6.8,2.39,29.08,29.08,0,0,1-6.51.82,32.28,32.28,0,0,1-5.83-.54,30.5,30.5,0,0,1-8.77-3.19,29.61,29.61,0,0,1-4.83-3.41c-.5-.45-.86-.82-1.11-1.06s-.36-.38-.36-.38l.4.34,1.14,1a30.34,30.34,0,0,0,4.85,3.31,30.86,30.86,0,0,0,8.74,3.08,31.71,31.71,0,0,0,5.77.5,28.92,28.92,0,0,0,6.42-.85,48.41,48.41,0,0,0,6.74-2.4,35.19,35.19,0,0,1,7.46-2.38,15.14,15.14,0,0,1,8.31.92,25,25,0,0,1,7.42,4.9c4.52,4.12,7.91,9.64,12.77,14.05a26.5,26.5,0,0,0,18.54,6.74,26,26,0,0,0,9.93-2.27c3.13-1.33,6.25-2.61,9.37-3.69a54.56,54.56,0,0,1,9.43-2.45,26.9,26.9,0,0,1,4.73-.29,16.17,16.17,0,0,1,4.57.88,26.9,26.9,0,0,1,7.91,4.05,51.73,51.73,0,0,1,6.15,5.68,51.35,51.35,0,0,0,5.71,5.25,27,27,0,0,0,6.22,3.45,31.43,31.43,0,0,0,6.26,1.73,48.26,48.26,0,0,0,5.77.69,86.36,86.36,0,0,0,9.31,0c2.56-.16,4.54-.32,5.88-.47L690,210Z" style="fill:#455a64"></path><path d="M610.56,167.63l-.32.29a8.48,8.48,0,0,1-1,.75,12.61,12.61,0,0,1-4.45,1.82,18.11,18.11,0,0,1-7.61-.17A27.59,27.59,0,0,1,588,166c-3.12-2.09-6.21-4.8-9.68-7.47s-7.45-5.32-12.24-6.42a25.14,25.14,0,0,0-7.48-.38c-2.57.2-5.18.61-7.87.86a26,26,0,0,1-8.24-.3,18,18,0,0,1-7.55-3.87c-4.45-3.74-7.26-8.73-10.06-13.28a61.33,61.33,0,0,0-4.46-6.49,29.56,29.56,0,0,0-5.41-5.21,31.5,31.5,0,0,0-12.62-5.62,29.37,29.37,0,0,0-12.05,0A31.51,31.51,0,0,0,475,126.13a33.11,33.11,0,0,0-3.19,3.58l-.73,1a2,2,0,0,1-.27.34,4.2,4.2,0,0,1,.23-.36l.69-1A29.59,29.59,0,0,1,474.9,126a31.39,31.39,0,0,1,15.39-8.43,29.79,29.79,0,0,1,12.22-.11,31.81,31.81,0,0,1,12.82,5.66,30.44,30.44,0,0,1,5.51,5.27,61.6,61.6,0,0,1,4.51,6.55c2.81,4.55,5.59,9.48,10,13.14a17.29,17.29,0,0,0,7.33,3.76,25.24,25.24,0,0,0,8.08.3c2.66-.24,5.28-.65,7.87-.84a25.45,25.45,0,0,1,7.62.4c4.91,1.15,8.93,3.88,12.4,6.54s6.55,5.42,9.63,7.52a27.24,27.24,0,0,0,9,4.29,17.93,17.93,0,0,0,7.5.26,13.11,13.11,0,0,0,4.44-1.71C610.11,168,610.53,167.6,610.56,167.63Z" style="fill:#455a64"></path><path d="M643.43,150.09s-.55.56-1.69,1.53a33.5,33.5,0,0,1-5.38,3.66,36,36,0,0,1-9.63,3.63,34.71,34.71,0,0,1-13.6.36,36.32,36.32,0,0,1-21.85-12.8c-2-2.49-3.72-5.27-5.55-8.05a38,38,0,0,0-6.43-7.86,17.37,17.37,0,0,0-9.52-4.13,42.28,42.28,0,0,0-11,.51,95.07,95.07,0,0,1-11.36,1.31,24.77,24.77,0,0,1-5.77-.48,13,13,0,0,1-1.39-.39c-.46-.16-.93-.26-1.37-.46l-1.29-.62a6.88,6.88,0,0,1-1.25-.69,17.42,17.42,0,0,1-4.21-3.76A32.4,32.4,0,0,1,529,117.3c-1.85-3.14-3.4-6.36-5.27-9.29a29.32,29.32,0,0,0-3.12-4.08,19,19,0,0,0-3.87-3.14,20.38,20.38,0,0,0-4.43-2,27.09,27.09,0,0,0-4.66-1,41.67,41.67,0,0,0-9.13-.07c-2.95.26-5.78.71-8.49,1.2s-5.3,1-7.76,1.57a72.84,72.84,0,0,0-12.95,4.07,34.9,34.9,0,0,0-8.7,5.35c-.51.48-1,.89-1.46,1.35L458,112.51c-.69.83-1.23,1.57-1.67,2.17l-.88,1.44-.32.48s.08-.18.27-.51l.85-1.47c.42-.61.95-1.36,1.63-2.21l1.18-1.31c.42-.47.94-.89,1.46-1.38a34.63,34.63,0,0,1,8.71-5.47,72.28,72.28,0,0,1,13-4.15c2.46-.58,5.06-1.11,7.77-1.61s5.55-1,8.52-1.24a42,42,0,0,1,9.23,0,26.33,26.33,0,0,1,4.74,1,20.88,20.88,0,0,1,4.54,2.08,18.75,18.75,0,0,1,4,3.22,30.16,30.16,0,0,1,3.19,4.14c1.9,3,3.45,6.19,5.29,9.3a32.51,32.51,0,0,0,3.1,4.48,17,17,0,0,0,4.09,3.65,6.52,6.52,0,0,0,1.21.67l1.26.6c.42.19.88.29,1.32.44a12.91,12.91,0,0,0,1.35.38,24.2,24.2,0,0,0,5.65.47c7.64-.19,15-2.69,22.4-1.8a17.81,17.81,0,0,1,9.78,4.25,38.49,38.49,0,0,1,6.5,8c1.84,2.79,3.55,5.56,5.51,8a35.8,35.8,0,0,0,21.56,12.73,34.55,34.55,0,0,0,13.47-.29,36.5,36.5,0,0,0,9.6-3.52,36.13,36.13,0,0,0,5.41-3.57c.59-.44,1-.84,1.3-1.07S643.43,150.09,643.43,150.09Z" style="fill:#263238"></path><path d="M681.33,250a3.94,3.94,0,0,1-.43.17l-1.29.44a17.45,17.45,0,0,1-2.14.56,25.92,25.92,0,0,1-3,.51,36.78,36.78,0,0,1-8.27-.11,58,58,0,0,1-10.67-2.45c-3.87-1.22-8-2.86-12.4-4.7a121.43,121.43,0,0,0-14.26-5.17,43.43,43.43,0,0,0-16.51-1.75,26.87,26.87,0,0,0-8.45,2.35,89.6,89.6,0,0,0-7.85,4.64,28.67,28.67,0,0,1-8.35,3.86,11.34,11.34,0,0,1-8.73-1.51,26.28,26.28,0,0,1-6-6.14,41.65,41.65,0,0,0-5.41-6.12c-4-3.48-8.93-5.27-13.48-6.51s-9-1.94-13-2.79a59.91,59.91,0,0,1-10.48-3.16,29.93,29.93,0,0,1-7.13-4.17,21.34,21.34,0,0,1-3.62-3.77c-.34-.49-.57-.88-.74-1.14l-.24-.4a3.58,3.58,0,0,1,.28.37l.79,1.11a22.74,22.74,0,0,0,3.65,3.67,29.94,29.94,0,0,0,7.12,4.06A60.72,60.72,0,0,0,541.2,225c4,.82,8.35,1.51,13,2.73s9.54,3,13.69,6.57a41.16,41.16,0,0,1,5.48,6.18,26.06,26.06,0,0,0,5.94,6,10.82,10.82,0,0,0,8.33,1.43,28.2,28.2,0,0,0,8.2-3.79,84.26,84.26,0,0,1,7.9-4.66,27.43,27.43,0,0,1,8.61-2.4,43.87,43.87,0,0,1,16.7,1.8,121.87,121.87,0,0,1,14.3,5.23c4.38,1.85,8.5,3.51,12.35,4.75a60.26,60.26,0,0,0,10.59,2.52,37.41,37.41,0,0,0,8.21.19,26.57,26.57,0,0,0,3-.46,18.46,18.46,0,0,0,2.14-.51l1.3-.39Z" style="fill:#455a64"></path><path d="M462.42,172.27a24.19,24.19,0,0,0-.57-3.66,14.3,14.3,0,0,0-1.69-4,15,15,0,0,0-3.81-4.22,14.72,14.72,0,0,0-6.28-2.76,14.88,14.88,0,0,0-7.81.66,14.85,14.85,0,0,0-6.89,5.18,14.79,14.79,0,0,0,0,17.54,15,15,0,0,0,6.89,5.19,15.09,15.09,0,0,0,7.81.66,14.84,14.84,0,0,0,6.28-2.76,15.14,15.14,0,0,0,3.81-4.22,14.48,14.48,0,0,0,1.69-4,24,24,0,0,0,.57-3.66,1.27,1.27,0,0,1,0,.25c0,.19,0,.43,0,.72a6.61,6.61,0,0,1-.09,1.17,10.93,10.93,0,0,1-.28,1.57,14.29,14.29,0,0,1-1.64,4.08,15.23,15.23,0,0,1-18.31,6.62,15.35,15.35,0,0,1-7.14-5.33,15.27,15.27,0,0,1,0-18.15,14.57,14.57,0,0,1,3.25-3.26,14.75,14.75,0,0,1,3.89-2.07,15.26,15.26,0,0,1,8-.64,15.26,15.26,0,0,1,10.26,7.26,14.24,14.24,0,0,1,1.64,4.07,11,11,0,0,1,.28,1.58,6.61,6.61,0,0,1,.09,1.17c0,.29,0,.52,0,.72A1.1,1.1,0,0,1,462.42,172.27Z" style="fill:#455a64"></path><path d="M501.84,172.27a24.19,24.19,0,0,0-.57-3.66,14,14,0,0,0-1.69-4,15,15,0,0,0-3.81-4.22,14.72,14.72,0,0,0-6.28-2.76,14.88,14.88,0,0,0-7.81.66,14.85,14.85,0,0,0-6.89,5.18,14.79,14.79,0,0,0,0,17.54,13.85,13.85,0,0,0,3.14,3.16,14.27,14.27,0,0,0,3.75,2,15.09,15.09,0,0,0,7.81.66,14.84,14.84,0,0,0,6.28-2.76,15.14,15.14,0,0,0,3.81-4.22,14.17,14.17,0,0,0,1.69-4,24,24,0,0,0,.57-3.66.72.72,0,0,1,0,.25c0,.19,0,.43,0,.72a6.73,6.73,0,0,1-.1,1.17,10.93,10.93,0,0,1-.28,1.57,14.29,14.29,0,0,1-1.64,4.08,15.23,15.23,0,0,1-18.31,6.62,15.35,15.35,0,0,1-7.14-5.33,15.27,15.27,0,0,1,0-18.15,14.57,14.57,0,0,1,3.25-3.26,14.75,14.75,0,0,1,3.89-2.07,15.26,15.26,0,0,1,8.05-.64,15.26,15.26,0,0,1,10.26,7.26,14.24,14.24,0,0,1,1.64,4.07,11,11,0,0,1,.28,1.58,6.73,6.73,0,0,1,.1,1.17c0,.29,0,.52,0,.72A.64.64,0,0,1,501.84,172.27Z" style="fill:#455a64"></path><path d="M472.08,168.64c-.08,0-.4-.61-1.23-1.36a5.87,5.87,0,0,0-7.89-.21c-.87.71-1.23,1.34-1.3,1.29a3.16,3.16,0,0,1,1-1.57,5.87,5.87,0,0,1,8.4.22A3.22,3.22,0,0,1,472.08,168.64Z" style="fill:#455a64"></path><path d="M517.83,183.19a15.64,15.64,0,0,1-2.35-1.53c-1.42-1-3.38-2.34-5.57-3.8s-4.2-2.75-5.65-3.68a16.16,16.16,0,0,1-2.31-1.59,14.64,14.64,0,0,1,2.5,1.27c1.51.85,3.55,2.1,5.75,3.56s4.13,2.88,5.5,4A14.6,14.6,0,0,1,517.83,183.19Z" style="fill:#455a64"></path><path d="M488,185.07a3.37,3.37,0,0,1-1,.11,11.61,11.61,0,0,1-2.78-.27,13.16,13.16,0,0,1-10.48-13.5,12.11,12.11,0,0,1,.43-2.77,3.44,3.44,0,0,1,.36-.95,26.84,26.84,0,0,0-.42,3.72,13.3,13.3,0,0,0,10.2,13.14A25.64,25.64,0,0,0,488,185.07Z" style="fill:#fff"></path><path d="M438.35,181.06a2.24,2.24,0,0,1-.71-.4A9.93,9.93,0,0,1,436,179.2a11.23,11.23,0,0,1-1.17-13.55,9.94,9.94,0,0,1,1.36-1.72,2.35,2.35,0,0,1,.62-.51c.08.07-.77.85-1.66,2.42A11.49,11.49,0,0,0,436.29,179C437.44,180.36,438.4,181,438.35,181.06Z" style="fill:#fff"></path><path d="M563.74,271.06a33,33,0,0,1,18.89,19.25c5.42,14.82,14.9,106.75,14.9,106.75,0-4.83,12.61,10.49,10.66,60.5H555.47l-21.22-71.85Z" style="fill:#4C3DED"></path><path d="M445,259c-2.44-.31-26.66,8.09-31.16,15.63s-27.45,84.62-27.45,84.62l-51.67,8.35s-18.3-.55-16.88,18.1S322,418.79,330,424.91s16.24,8.7,20.93,6.34c4.33-2.18,3.71-7.91,3.71-7.91s43.76,9.51,53,1.57S445,259,445,259Z" style="fill:#4C3DED"></path><path d="M519.44,245.66l.32,12s40.78,11.41,44,13.34-20.56,132-20.56,132S574,439.72,576,452.89l.69,4.67H401.57l6.36-49.1-3-52.09,23.54-91.72,28.42-10.09-.32-6.95a3,3,0,0,1,2.95-3.17l56.82-1.74A3,3,0,0,1,519.44,245.66Z" style="fill:#4C3DED"></path><path d="M407.07,393.7a1,1,0,0,0,0-.28c0-.22,0-.5-.07-.85-.07-.78-.17-1.86-.29-3.23s-.32-3.12-.44-5.12-.36-4.26-.45-6.78-.28-5.27-.29-8.23c0-1.49-.06-3,0-4.59s0-3.2.07-4.87a207.64,207.64,0,0,1,1.69-21.58,196.7,196.7,0,0,1,4.2-21.24c.43-1.6.86-3.17,1.27-4.69s.9-3,1.33-4.4c.83-2.84,1.79-5.43,2.61-7.81.4-1.19.81-2.32,1.23-3.37l1.15-3c.7-1.88,1.38-3.46,1.93-4.76l1.24-3c.13-.32.23-.58.31-.79a1,1,0,0,0,.09-.27s-.06.08-.14.25-.21.45-.36.76c-.32.72-.76,1.71-1.33,3s-1.29,2.86-2,4.73c-.38.93-.77,1.92-1.19,3s-.86,2.17-1.28,3.36c-.84,2.38-1.81,5-2.67,7.81-.43,1.42-.93,2.87-1.36,4.4s-.85,3.09-1.29,4.7a187.17,187.17,0,0,0-4.25,21.29,197.83,197.83,0,0,0-1.66,21.64c0,1.67,0,3.3-.05,4.88s.06,3.11.08,4.59c0,3,.23,5.73.36,8.25s.37,4.79.52,6.79.37,3.71.53,5.11.3,2.45.4,3.22c.05.35.08.62.11.84A.9.9,0,0,0,407.07,393.7Z" style="fill:#263238"></path><path d="M539.22,309.91a2.12,2.12,0,0,1-.05.39c-.06.27-.13.64-.22,1.11-.22,1-.48,2.42-.78,4.28a93.35,93.35,0,0,0-1,15.94,143.26,143.26,0,0,0,2.54,23.57c1.62,8.79,4,18.32,6.52,28.34s4.67,19.63,6,28.49,2.05,16.89,2.47,23.65.58,12.23.7,16c0,1.87.09,3.33.12,4.35,0,.48,0,.85,0,1.14a2.21,2.21,0,0,1,0,.38,2.28,2.28,0,0,1,0-.38c0-.28,0-.66-.07-1.13-.05-1-.13-2.49-.22-4.35-.19-3.78-.42-9.25-.87-16s-1.18-14.77-2.57-23.6-3.51-18.43-6-28.44-4.89-19.56-6.48-28.38a140.78,140.78,0,0,1-2.44-23.64,89.64,89.64,0,0,1,1.21-16A55.56,55.56,0,0,1,539.22,309.91Z" style="fill:#263238"></path><path d="M520,258.22a3.33,3.33,0,0,1-.62.27l-1.8.7a63.85,63.85,0,0,1-6.82,2,85.41,85.41,0,0,1-10.4,1.71,126.4,126.4,0,0,1-12.89.6c-4.58,0-8.93-.14-12.89-.44a31.25,31.25,0,0,1-10.27-2.37,17.42,17.42,0,0,1-5.82-4.08,12.7,12.7,0,0,1-1.2-1.52,3.43,3.43,0,0,1-.34-.58s.52.78,1.69,2a18.08,18.08,0,0,0,5.82,3.88,31.47,31.47,0,0,0,10.16,2.23c3.93.27,8.29.38,12.85.4s8.91-.17,12.84-.56a91.32,91.32,0,0,0,10.37-1.59c2.92-.61,5.23-1.34,6.84-1.81l1.83-.6A2.6,2.6,0,0,1,520,258.22Z" style="fill:#263238"></path><path d="M504.66,376.34a2.27,2.27,0,0,1-.6.08l-1.73.14-1.24.08c-.46,0-1,0-1.49,0a34.42,34.42,0,0,1-3.62-.18l-2.11-.21c-.73-.08-1.47-.25-2.25-.37-1.57-.23-3.2-.7-4.93-1.14a51.57,51.57,0,0,1-20.11-11.11,48.2,48.2,0,0,1-3.58-3.56c-.53-.59-1.07-1.13-1.53-1.71l-1.29-1.66a34.48,34.48,0,0,1-2.08-3c-.29-.45-.57-.86-.8-1.25s-.41-.77-.6-1.1c-.32-.63-.59-1.13-.8-1.53a2.26,2.26,0,0,1-.25-.55,2.34,2.34,0,0,1,.34.5c.23.39.53.87.89,1.48l.63,1.07c.24.38.54.78.84,1.22a33.75,33.75,0,0,0,2.12,2.91l1.31,1.63c.46.57,1,1.1,1.53,1.68,1,1.18,2.3,2.29,3.59,3.5a52.58,52.58,0,0,0,19.93,11,48.76,48.76,0,0,0,4.87,1.17c.77.14,1.51.32,2.23.41l2.08.24a35.18,35.18,0,0,0,3.59.24c.53,0,1,.06,1.48.06l1.25,0,1.72,0A2.93,2.93,0,0,1,504.66,376.34Z" style="fill:#263238"></path><path d="M396.62,386.55c-.09,0-.24-1.66-.74-4.3a52.68,52.68,0,0,0-7.79-19.31c-1.48-2.24-2.53-3.54-2.46-3.6a5.18,5.18,0,0,1,.81.86,30.93,30.93,0,0,1,1.95,2.53,46.22,46.22,0,0,1,7.86,19.46c.2,1.34.32,2.43.35,3.18A6.28,6.28,0,0,1,396.62,386.55Z" style="fill:#263238"></path><path d="M571.9,281.5a52.6,52.6,0,0,0-5.3-.36l-1.29.05c-.44,0-.9.1-1.38.15a26.21,26.21,0,0,0-3,.55,30.09,30.09,0,0,0-6.54,2.55,30.42,30.42,0,0,0-5.68,4.12,26.88,26.88,0,0,0-2.1,2.25c-.3.37-.62.71-.88,1.08l-.73,1.05a52.73,52.73,0,0,0-2.57,4.66,7.29,7.29,0,0,1,.47-1.37,10.05,10.05,0,0,1,.69-1.54,16.85,16.85,0,0,1,1.1-1.95l.72-1.09c.25-.38.57-.73.87-1.12a23.11,23.11,0,0,1,2.1-2.31,26.58,26.58,0,0,1,12.44-6.79,24.78,24.78,0,0,1,3.08-.52c.49,0,1-.11,1.41-.12l1.31,0a16.54,16.54,0,0,1,2.23.13,10.77,10.77,0,0,1,1.68.25A7.86,7.86,0,0,1,571.9,281.5Z" style="fill:#263238"></path><g style="opacity:0.30000000000000004"><path d="M483.86,373.2c-10.81-3.81-21.87-11.7-27.11-21.9,2.49,12.32,11.83,25,23.7,29.11a37.11,37.11,0,0,0,35.42-6.55C505.39,378.52,494.68,377,483.86,373.2Z"></path></g><path d="M401.57,457.56a5.24,5.24,0,0,1,0-.65c0-.49.12-1.11.2-1.88.19-1.68.46-4,.79-6.86l2.83-22.64c.64-4.88,1.24-9.51,1.78-13.61v0c-.08-5.44-.15-10.05-.2-13.38,0-1.58,0-2.85,0-3.8,0-.4,0-.73,0-1a1.6,1.6,0,0,1,0-.35s0,.12.05.35,0,.6.06,1c0,.94.09,2.21.15,3.8.1,3.32.23,7.93.39,13.37v0c-.52,4.1-1.1,8.73-1.72,13.62l-3,22.61c-.4,2.85-.73,5.17-1,6.85-.12.76-.22,1.38-.29,1.86A2.7,2.7,0,0,1,401.57,457.56Z" style="fill:#263238"></path><path d="M337.12,381.86s.11.12.29.38l.72,1.14c.63,1,1.5,2.46,2.52,4.29a144.44,144.44,0,0,1,7.17,14.75,145.89,145.89,0,0,1,5.44,15.48c.58,2,1,3.66,1.27,4.81l.3,1.32a1.62,1.62,0,0,1,.07.47,1.48,1.48,0,0,1-.17-.45q-.17-.53-.39-1.29c-.33-1.13-.81-2.75-1.43-4.75-1.24-4-3.11-9.48-5.57-15.39s-5-11.08-7-14.78c-1-1.85-1.8-3.33-2.37-4.36l-.64-1.18A1.77,1.77,0,0,1,337.12,381.86Z" style="fill:#263238"></path><path d="M347.14,399.1c0,.1-1.58-.11-4.1,0a31.09,31.09,0,0,0-4.4.46,31.36,31.36,0,0,0-10.13,3.68,31,31,0,0,0-3.67,2.47c-2,1.56-3,2.72-3.12,2.65a4.45,4.45,0,0,1,.7-.85,9.62,9.62,0,0,1,.91-.93c.37-.35.78-.76,1.28-1.16a27.31,27.31,0,0,1,3.66-2.59,29.06,29.06,0,0,1,10.29-3.74,27.05,27.05,0,0,1,4.47-.36c.64,0,1.22,0,1.73.06a10.16,10.16,0,0,1,1.29.13A4.22,4.22,0,0,1,347.14,399.1Z" style="fill:#fff"></path><path d="M334.9,380.14c0,.09-1.06-.47-2.86-.88a13.47,13.47,0,0,0-13,4.05c-1.25,1.35-1.78,2.39-1.86,2.34a2.13,2.13,0,0,1,.32-.75,11.27,11.27,0,0,1,1.26-1.84,13,13,0,0,1,13.41-4.15,10.77,10.77,0,0,1,2.08.79C334.68,379.94,334.92,380.11,334.9,380.14Z" style="fill:#fff"></path><path d="M352.94,419.44s-.23.25-.72.62a24.22,24.22,0,0,1-2.17,1.45,30.82,30.82,0,0,1-8,3.27,30.32,30.32,0,0,1-8.55.93,19.75,19.75,0,0,1-2.6-.23,2.85,2.85,0,0,1-.93-.2c0-.09,1.36.07,3.54.07a34.6,34.6,0,0,0,16.32-4.16C351.78,420.15,352.89,419.36,352.94,419.44Z" style="fill:#fff"></path><path d="M468.05,261.81s-.19-.17-.46-.54a11,11,0,0,1-1-1.66,16.7,16.7,0,0,1-1.7-6.12,17,17,0,0,1,.69-6.31,11.78,11.78,0,0,1,.71-1.79c.2-.41.33-.63.37-.61s-.33.95-.72,2.5a18.75,18.75,0,0,0,1,12.18C467.58,260.92,468.13,261.76,468.05,261.81Z" style="fill:#fff"></path><path d="M485.21,263s-.2-.19-.49-.58a13.61,13.61,0,0,1-1.07-1.75,18.91,18.91,0,0,1-1.47-13.24,12.86,12.86,0,0,1,.65-1.95,2.36,2.36,0,0,1,.35-.67c.09,0-.29,1-.64,2.7a21,21,0,0,0-.31,6.61,21.43,21.43,0,0,0,1.75,6.39C484.69,262,485.28,262.9,485.21,263Z" style="fill:#fff"></path><path d="M504.45,261.67a44.58,44.58,0,0,0,.7-8.5,45.13,45.13,0,0,0-1.48-8.39,8.73,8.73,0,0,1,1,2.34,24.91,24.91,0,0,1,1,6,24.46,24.46,0,0,1-.48,6.1A8.82,8.82,0,0,1,504.45,261.67Z" style="fill:#fff"></path><path d="M365.06,399.42a7.66,7.66,0,0,1-.47-1.32c-.3-1-.68-2.17-1.13-3.64-1-3.06-2.35-7.29-4-11.89s-3.37-8.72-4.62-11.69c-.59-1.41-1.09-2.58-1.48-3.5a8.05,8.05,0,0,1-.5-1.31,7.42,7.42,0,0,1,.68,1.22c.41.8,1,2,1.64,3.45,1.34,2.93,3.08,7,4.77,11.65s3,8.87,3.9,12c.44,1.55.77,2.81,1,3.69A6.36,6.36,0,0,1,365.06,399.42Z" style="fill:#fff"></path><path d="M370.32,410.93A18.09,18.09,0,0,1,368,405.3a18.09,18.09,0,0,1,2.32,5.63Z" style="fill:#fff"></path><path d="M397.45,418.21a1.93,1.93,0,0,1-.19-.57c-.12-.44-.27-1-.45-1.69-.37-1.46-.93-3.57-1.66-6.17-1.46-5.19-3.7-12.31-6.7-20s-6.21-14.4-8.68-19.2c-1.23-2.4-2.26-4.33-3-5.65-.34-.62-.61-1.13-.82-1.53a2.4,2.4,0,0,1-.25-.56,3.61,3.61,0,0,1,.34.5c.24.39.54.88.9,1.49.78,1.3,1.86,3.2,3.13,5.58a182.92,182.92,0,0,1,15.41,39.25c.69,2.61,1.2,4.74,1.51,6.22.14.69.26,1.26.35,1.7A4.38,4.38,0,0,1,397.45,418.21Z" style="fill:#fff"></path><path d="M403.06,350.06a39.26,39.26,0,0,1-5.3-3.75,39.76,39.76,0,0,1-5-4.17,41.11,41.11,0,0,1,5.3,3.76A40.24,40.24,0,0,1,403.06,350.06Z" style="fill:#fff"></path><path d="M406.4,326.52a5.72,5.72,0,0,1-2.26-.75c-1.19-.55-2.11-1.1-2-1.23a5.53,5.53,0,0,1,2.26.75C405.54,325.84,406.46,326.39,406.4,326.52Z" style="fill:#fff"></path><path d="M414.32,305.42a25.43,25.43,0,0,1-4.86-1.12,23.75,23.75,0,0,1-4.71-1.63,25.43,25.43,0,0,1,4.86,1.12A23.75,23.75,0,0,1,414.32,305.42Z" style="fill:#fff"></path><path d="M446.78,280.94c0,.14-7.79,0-17.39-.34s-17.37-.71-17.36-.85,7.79,0,17.38.33S446.78,280.8,446.78,280.94Z" style="fill:#fff"></path><path d="M463.33,281.17a16.93,16.93,0,0,1-6-.33,9,9,0,0,1,3-.09A8.9,8.9,0,0,1,463.33,281.17Z" style="fill:#fff"></path><path d="M524.23,281c0,.14-9.71.11-21.68-.07s-21.68-.45-21.68-.59,9.71-.11,21.69.07S524.24,280.81,524.23,281Z" style="fill:#fff"></path><path d="M548.4,277.86a23.35,23.35,0,0,1-6.95,0,23.35,23.35,0,0,1,6.95,0Z" style="fill:#fff"></path><path d="M568.26,275.22a14.78,14.78,0,0,1-3.78.59,14.49,14.49,0,0,1-3.83.07,14.17,14.17,0,0,1,3.78-.59A14,14,0,0,1,568.26,275.22Z" style="fill:#fff"></path><path d="M527.41,261.19a6.36,6.36,0,0,1-.82.27l-2.37.71c-1,.31-2.3.66-3.79,1s-3.17.81-5.06,1.16l-3,.6c-1,.2-2.11.35-3.23.54-2.23.39-4.63.66-7.16,1a154.56,154.56,0,0,1-16.53.83A156.26,156.26,0,0,1,469,266.16c-2.52-.36-4.93-.67-7.15-1.1-1.11-.21-2.19-.38-3.22-.6l-2.95-.64c-1.89-.39-3.56-.87-5-1.25s-2.75-.74-3.77-1.07l-2.36-.74c-.54-.18-.82-.28-.82-.29a4,4,0,0,1,.85.19l2.38.65c1,.29,2.3.64,3.79,1s3.16.81,5.05,1.17l2.95.61c1,.21,2.11.37,3.22.56,2.22.42,4.61.71,7.12,1.05a161.76,161.76,0,0,0,16.47,1.06A159.73,159.73,0,0,0,502,266c2.52-.29,4.92-.54,7.15-.92,1.11-.18,2.19-.32,3.22-.51l3-.56c1.9-.33,3.58-.75,5.07-1.08s2.77-.64,3.8-.92l2.4-.61A4.67,4.67,0,0,1,527.41,261.19Z" style="fill:#fff"></path><path d="M537.14,320.4a1.34,1.34,0,0,1-.32,0h-1l-3.62,0c-3.14,0-7.69,0-13.31-.1-11.25-.16-26.78-.55-43.92-1.37s-32.7-1.57-43.78-3.74a93.07,93.07,0,0,1-12.91-3.3c-1.49-.5-2.63-.94-3.4-1.26l-.87-.35a1.11,1.11,0,0,1-.29-.14,1.25,1.25,0,0,1,.31.09l.89.31c.78.28,1.93.69,3.42,1.16a99.94,99.94,0,0,0,12.92,3.13c11.05,2.07,26.6,2.72,43.73,3.58s32.66,1.27,43.9,1.52l13.32.27,3.62.08.94,0Z" style="fill:#fff"></path><path d="M441.5,354.18a6.72,6.72,0,0,1-1.36.19c-.87.09-2.14.18-3.72.24A92.28,92.28,0,0,1,412,352.26c-1.53-.36-2.76-.69-3.61-.95a6.32,6.32,0,0,1-1.29-.44,7.89,7.89,0,0,1,1.35.25c.85.19,2.09.47,3.63.78a111.28,111.28,0,0,0,24.33,2.34c1.57,0,2.84,0,3.72-.07A6.31,6.31,0,0,1,441.5,354.18Z" style="fill:#fff"></path><path d="M455.06,354a13.94,13.94,0,0,1-5.3.33,6.75,6.75,0,0,1,2.63-.43A6.85,6.85,0,0,1,455.06,354Z" style="fill:#fff"></path><path d="M515.3,359a2.44,2.44,0,0,1-.56,0l-1.59.05c-1.39,0-3.39,0-5.87,0-4.95,0-11.79-.15-19.33-.52s-14.38-.91-19.3-1.38c-2.47-.24-4.46-.45-5.84-.61l-1.58-.21a3.19,3.19,0,0,1-.55-.1,2.05,2.05,0,0,1,.56,0l1.59.1,5.85.45c4.93.38,11.75.85,19.29,1.23s14.37.56,19.32.67l5.86.12,1.59.06A1.88,1.88,0,0,1,515.3,359Z" style="fill:#fff"></path><path d="M538.73,357a42,42,0,0,1-9.22,1.19,21.14,21.14,0,0,1,4.58-.86A20.75,20.75,0,0,1,538.73,357Z" style="fill:#fff"></path><path d="M548.32,394.9a1.71,1.71,0,0,1-.36.06l-1.06.12-4.06.41c-1.76.17-3.92.37-6.43.56s-5.37.45-8.53.63c-6.33.42-13.87.78-22.25,1s-17.59.26-27.26.07-18.89-.67-27.25-1.22-15.88-1.27-22.18-2c-3.16-.32-6-.69-8.5-1s-4.65-.58-6.4-.83l-4-.58L409,392a1.52,1.52,0,0,1-.36-.08l.36,0,1.06.12,4.05.48c1.76.22,3.91.48,6.41.74s5.35.62,8.51.91c6.3.65,13.81,1.29,22.17,1.85s17.56,1,27.23,1.18,18.87.14,27.24,0,15.91-.53,22.23-.91c3.17-.16,6-.38,8.54-.55s4.67-.33,6.43-.48l4.07-.31,1.06-.06A1.51,1.51,0,0,1,548.32,394.9Z" style="fill:#fff"></path><path d="M480.2,439.66a3.23,3.23,0,0,1-.76.07l-2.2.1c-1.9.09-4.66.14-8.06.16-6.82,0-16.24-.2-26.61-1.06s-19.7-2.18-26.42-3.34c-3.35-.57-6.06-1.08-7.93-1.48l-2.14-.46a5.32,5.32,0,0,1-.74-.19,3.64,3.64,0,0,1,.76.09l2.16.36c1.87.34,4.59.79,7.95,1.32,6.73,1.07,16.05,2.32,26.41,3.19s19.75,1.15,26.56,1.2c3.4,0,6.16,0,8.06,0h2.19A5,5,0,0,1,480.2,439.66Z" style="fill:#fff"></path><path d="M505.7,438.67a108.93,108.93,0,0,1-14.9.27,104.91,104.91,0,0,1,14.9-.27Z" style="fill:#fff"></path><path d="M553.7,436.25a6.07,6.07,0,0,1-1.28.11l-3.48.13-11.46.37-11.47.47-3.47.12a5.1,5.1,0,0,1-1.28,0,7.57,7.57,0,0,1,1.26-.18c.82-.08,2-.18,3.47-.29,2.93-.22,7-.45,11.47-.62s8.54-.22,11.48-.22c1.47,0,2.66,0,3.48,0A5.49,5.49,0,0,1,553.7,436.25Z" style="fill:#fff"></path><path d="M566.94,332.07a5.07,5.07,0,0,1-1.2.1l-3.25.13c-2.75.13-6.54.39-10.69.93s-7.89,1.25-10.58,1.82l-3.18.7a4.81,4.81,0,0,1-1.18.21,5.19,5.19,0,0,1,1.13-.4c.74-.23,1.81-.53,3.15-.87a95.13,95.13,0,0,1,21.34-2.75c1.37,0,2.49,0,3.26,0A5.85,5.85,0,0,1,566.94,332.07Z" style="fill:#fff"></path><path d="M583.15,328.84c0,.15-2.24.24-5,.61s-4.92.86-5,.71a15.63,15.63,0,0,1,4.89-1.23A15.34,15.34,0,0,1,583.15,328.84Z" style="fill:#fff"></path><path d="M588.75,327.42c0,.13-.36.39-.91.58s-1,.22-1.08.09.37-.4.91-.59S588.7,327.28,588.75,327.42Z" style="fill:#fff"></path><path d="M583.16,297.23a8.44,8.44,0,0,1-1.62.11c-1,0-2.53.09-4.38.18-3.71.18-8.82.58-14.41,1.4s-10.6,1.92-14.2,2.82c-1.8.45-3.25.83-4.25,1.1a8.24,8.24,0,0,1-1.57.36,10,10,0,0,1,1.51-.55c1-.34,2.43-.77,4.22-1.27a121.91,121.91,0,0,1,28.68-4.23c1.86,0,3.36,0,4.4,0A11.72,11.72,0,0,1,583.16,297.23Z" style="fill:#fff"></path><path d="M593.76,365a1.89,1.89,0,0,1-.5.1l-1.42.17-5.24.58c-4.43.5-10.53,1.23-17.25,2.22s-12.78,2-17.16,2.84l-5.19.95-1.41.24a1.77,1.77,0,0,1-.51.05,1.88,1.88,0,0,1,.48-.15l1.4-.34c1.21-.29,3-.67,5.16-1.11,4.36-.9,10.42-2,17.15-3s12.85-1.66,17.29-2.06c2.22-.2,4-.35,5.26-.42l1.43-.08A2.58,2.58,0,0,1,593.76,365Z" style="fill:#fff"></path><path d="M570.89,404.17a90.84,90.84,0,0,1-9.56,1.47,88.84,88.84,0,0,1-9.62,1,182.1,182.1,0,0,1,19.18-2.43Z" style="fill:#fff"></path><path d="M585.47,402.34a34,34,0,0,1-8.27,1.33,34.21,34.21,0,0,1,8.27-1.33Z" style="fill:#fff"></path><path d="M599.37,402.32a21.2,21.2,0,0,1-6.62,0,21.2,21.2,0,0,1,6.62,0Z" style="fill:#fff"></path><path d="M607.3,440.08a1.51,1.51,0,0,1-.51.08l-1.5.11-5.5.35-18.13,1.13L563.54,443l-5.5.39-1.49.08a2.45,2.45,0,0,1-.53,0,2.08,2.08,0,0,1,.52-.1l1.49-.18c1.29-.15,3.16-.34,5.48-.56,4.63-.43,11-1,18.12-1.43s13.5-.8,18.15-1c2.32-.09,4.2-.15,5.5-.18l1.5,0A1.76,1.76,0,0,1,607.3,440.08Z" style="fill:#fff"></path><g style="opacity:0.30000000000000004"><path d="M537.14,322c-2.5,6.89-4,17.06-2.56,35.65a48.79,48.79,0,0,1-3.14,21.8c-1.09,2.73-2.31,6.45.13,8.1,2,1.33,4.72-.07,7,.63,3,.91,3.69,4.67,4,7.75a264.39,264.39,0,0,0,12.77,57.81C559.06,410.25,535.19,365.51,537.14,322Z"></path></g><g style="opacity:0.30000000000000004"><path d="M405.55,426.31l1.88-14c-.3-4.41-.23-18.23-1-24.91a241.81,241.81,0,0,1-.78-39.51c-3.82,10.62-5.7,22.12-4.45,33.34.54,4.83,1.55,9.61,1.73,14.46s-.57,9.91-3.24,14c-3.84,5.83-11,8.62-17.91,9.59-12.82,1.81-27.46-2.45-33.94-13.66A47.28,47.28,0,0,0,355,423.39S389.77,431.53,405.55,426.31Z"></path></g><g style="opacity:0.30000000000000004"><path d="M486.91,263.22c-20.88-.91-23.58-2.64-28.85-7.15,0,3.62,3.14,6.42,6.37,8.05,17.08,8.65,39.06,6.56,54.2-5.15C508.19,261.24,497.59,263.69,486.91,263.22Z"></path></g><path d="M260.74,385.93a79.86,79.86,0,0,1,25.82-3,228.91,228.91,0,0,0,31-1.08c9.13,8.76,12.13,19.74,12.24,31.76l-60.31-6.53Z" style="fill:#ffbe9d"></path><path d="M256.68,414.7c-1.73-.66-3.52.76-4.76,2.13s-2.51,2.95-4.28,3.57l-4-4.4-4.33,10.93a24.09,24.09,0,0,0,5.65,4.12,6.48,6.48,0,0,0,4.77.93c1.77-.54,2.86-2.28,3.78-3.89l3.47-6a9.9,9.9,0,0,0,1.55-3.9A3.35,3.35,0,0,0,256.68,414.7Z" style="fill:#ffbe9d"></path><path d="M261.19,385.73s-14.11,9.29-16.65,10.68-13.89,25.47-13.89,25.47l2.09,29.29a8,8,0,0,0,6.91-6.35c1.52-6,2.15-19.38,2.15-19.38l10.35-13.16,21.34-6.39Z" style="fill:#ffbe9d"></path><path d="M251.18,404.87c0,4.33,5.19,6.65,3.64,11.48a99.8,99.8,0,0,1-.42,17.06c-.09.81,1.37,2.59,2,3.06.94.66,2.25.09,3.13-.64,2.42-2,3.67-5.1,4.33-8.17s.84-6.24,1.6-9.29c1-3.87,2.84-7.44,4-11.25s1.6-8.12-.29-11.63" style="fill:#ffbe9d"></path><path d="M250.52,405.26a2.63,2.63,0,0,1,.87.57,7.52,7.52,0,0,1,1.76,2.22c1.2,2.11,1.9,5.42,2.1,9a85.77,85.77,0,0,1,0,9.26c-.05,1.19-.12,2.14-.17,2.81a4.55,4.55,0,0,1-.14,1,3.7,3.7,0,0,1-.07-1c0-.78,0-1.71,0-2.81,0-2.36.06-5.63-.16-9.22a23.38,23.38,0,0,0-1.9-8.89A10,10,0,0,0,250.52,405.26Z" style="fill:#eb996e"></path><path d="M270.25,394.63a5.59,5.59,0,0,1,.56,1.83,19.28,19.28,0,0,1,.34,4.61,18.81,18.81,0,0,1-.76,4.57,5.57,5.57,0,0,1-.72,1.77,53.26,53.26,0,0,0,1-6.36A50.39,50.39,0,0,0,270.25,394.63Z" style="fill:#eb996e"></path><path d="M252,412.25a5.78,5.78,0,0,1-.74,1l-2.18,2.66-3.27,3.89-2,2.29a9.63,9.63,0,0,0-1.74,2.6,19.18,19.18,0,0,0-.49,3.11c-.1,1-.18,2-.25,3-.15,1.89-.28,3.6-.39,5.08s-.26,2.62-.39,3.42a3.8,3.8,0,0,1-.32,1.23,12,12,0,0,1,.12-1.26c.07-.8.14-2,.22-3.41s.17-3.2.28-5.09c.06-1,.12-2,.22-3a16.87,16.87,0,0,1,.52-3.25,10,10,0,0,1,1.83-2.75l2-2.27,3.36-3.82,2.3-2.55A6,6,0,0,1,252,412.25Z" style="fill:#eb996e"></path></g><g id="freepik--Speedometer--inject-42"><path d="M197.75,102.77c-9-.58-18.11.72-27.15.16-9.22-.56-18.23-3-27.44-3.83s-19.13.36-26.34,6.14a57.54,57.54,0,0,1,21.94,10.36c-10.24,2.05-20.84,1-31.24,2s-21.41,4.55-27.33,13.16A25.36,25.36,0,0,1,107,142.31,50.74,50.74,0,0,1,73.6,156.1c2.46,10.68,14,16.26,24.31,20s22,8.08,26.08,18.26l-12.38,2.15c8.5,6.57,15.11,15.21,22,23.49s14.24,16.44,23.68,21.57,21.39,6.79,30.9,1.77l68.66-92.53C249.6,124.68,224.76,104.49,197.75,102.77Z" style="fill:#4C3DED"></path><circle cx="201.03" cy="182.97" r="68.49" transform="translate(-22.29 337.94) rotate(-77.07)" style="fill:#f5f5f5"></circle><path d="M263.86,181.31h0a62.12,62.12,0,0,0-60.7-61.79c-.48,0-.95,0-1.44,0a62,62,0,0,0-45.07,19.38h0a61.92,61.92,0,0,0-17.07,42.54c0,.07,0,.15,0,.22a61.94,61.94,0,0,0,17.8,43.51l16.91-18.29a36.63,36.63,0,0,1-10-25.22c0-.08,0-.16,0-.24a36.61,36.61,0,0,1,9.47-24.4l0,0A36.68,36.68,0,0,1,201,144.85c.66,0,1.32,0,2,.06a36.78,36.78,0,0,1,34.79,36.4h0c0,.1,0,.21,0,.32a36.65,36.65,0,0,1-10.79,26l18.51,18.07a62,62,0,0,0,18.35-44.09C263.87,181.52,263.86,181.41,263.86,181.31Z" style="fill:#4C3DED"></path><path d="M173.76,157c-4.73-5-13.23-14.09-17.11-18.09h0L173.73,157Z" style="fill:#4C3DED"></path><polygon points="237.79 181.31 263.86 181.31 263.86 181.31 237.79 181.31 237.79 181.31" style="fill:#4C3DED"></polygon><g style="opacity:0.6000000000000001"><path d="M237.8,181.63a36.65,36.65,0,0,1-10.79,26l18.51,18.07a62,62,0,0,0,18.35-44.09c0-.11,0-.22,0-.32H237.79C237.79,181.41,237.8,181.52,237.8,181.63Z"></path></g><g style="opacity:0.5"><path d="M237.79,181.31h26.07a61.91,61.91,0,0,0-17.65-43.06l-18.47,18.12A36.59,36.59,0,0,1,237.79,181.31Z"></path></g><g style="opacity:0.4"><path d="M203,144.91a36.62,36.62,0,0,1,24.74,11.46l18.47-18.12a61.9,61.9,0,0,0-43.05-18.73L203,144.9Z"></path></g><g style="opacity:0.30000000000000004"><path d="M201,144.85c.66,0,1.32,0,2,.06h0l.16-25.38c-.48,0-.95,0-1.44,0a62,62,0,0,0-45.07,19.38c3.88,4,12.38,13,17.11,18.09A36.68,36.68,0,0,1,201,144.85Z"></path></g><g style="opacity:0.2"><path d="M164.26,181.39a36.61,36.61,0,0,1,9.47-24.4l-17.08-18.12a61.92,61.92,0,0,0-17.07,42.54C144.33,181.5,155.75,181.44,164.26,181.39Z"></path></g><path d="M269.52,183s0-.38,0-1.11l0-1.37c0-.54,0-1.17-.09-1.89s-.12-1.51-.19-2.39-.23-1.84-.36-2.88c-.29-2.07-.75-4.45-1.39-7.09a68.34,68.34,0,0,0-2.81-8.6,66.49,66.49,0,0,0-4.76-9.64,69.18,69.18,0,0,0-17.39-19.45,68.23,68.23,0,0,0-28.79-12.78,68.53,68.53,0,0,0-17.63-1,67.83,67.83,0,0,0-9.17,1.28,73.16,73.16,0,0,0-9.14,2.61,72.31,72.31,0,0,0-8.89,4,71.48,71.48,0,0,0-8.43,5.34,75.33,75.33,0,0,0-7.71,6.64,74.11,74.11,0,0,0-6.75,7.88,66.44,66.44,0,0,0-5.58,9c-.39.79-.84,1.57-1.19,2.39s-.74,1.62-1.1,2.44c-.66,1.67-1.35,3.33-1.89,5a66.18,66.18,0,0,0-2.6,10.58,68,68,0,0,0,0,22,66.2,66.2,0,0,0,2.61,10.58l.43,1.28.22.64.24.63,1,2.51,1.11,2.44c.35.82.79,1.6,1.19,2.39a67.4,67.4,0,0,0,5.57,9,73.13,73.13,0,0,0,6.75,7.88,76.63,76.63,0,0,0,7.72,6.65,72.11,72.11,0,0,0,8.42,5.33,67.68,67.68,0,0,0,18,6.59,69.46,69.46,0,0,0,9.17,1.28,68.05,68.05,0,0,0,17.63-1,66.47,66.47,0,0,0,15.73-5,67.41,67.41,0,0,0,13.07-7.82,69.26,69.26,0,0,0,17.38-19.44,66.05,66.05,0,0,0,4.76-9.65,68.76,68.76,0,0,0,2.81-8.59q1-4,1.39-7.1c.13-1,.27-2,.36-2.87s.13-1.68.19-2.39.08-1.35.09-1.89l0-1.37c0-.73,0-1.11,0-1.11s0,.38,0,1.11c0,.37,0,.82,0,1.37s0,1.17-.08,1.89-.11,1.51-.18,2.4-.22,1.83-.34,2.88c-.29,2.07-.73,4.45-1.37,7.1a67.18,67.18,0,0,1-2.79,8.62A65.62,65.62,0,0,1,260,218a69.39,69.39,0,0,1-17.39,19.52,68.29,68.29,0,0,1-28.88,12.86,68.49,68.49,0,0,1-17.69,1,69.9,69.9,0,0,1-9.2-1.28,67.87,67.87,0,0,1-18.11-6.6,72.63,72.63,0,0,1-8.45-5.35,68.18,68.18,0,0,1-14.53-14.58,68.57,68.57,0,0,1-5.6-9c-.4-.8-.84-1.58-1.2-2.4l-1.11-2.46-1-2.51-.25-.63-.22-.64-.43-1.29A65.62,65.62,0,0,1,133.3,194a72.56,72.56,0,0,1-.9-11,73.86,73.86,0,0,1,.9-11.05,67.65,67.65,0,0,1,2.61-10.61c.55-1.73,1.24-3.4,1.9-5.07l1.11-2.46c.35-.82.8-1.6,1.19-2.4a67.8,67.8,0,0,1,5.6-9,73.72,73.72,0,0,1,6.78-7.91,74.83,74.83,0,0,1,7.75-6.67,68.92,68.92,0,0,1,17.39-9.34,75.34,75.34,0,0,1,9.17-2.61,69.69,69.69,0,0,1,26.89-.29,68.48,68.48,0,0,1,28.87,12.85A69.28,69.28,0,0,1,260,147.92a69,69,0,0,1,7.54,18.3c.64,2.64,1.08,5,1.37,7.1.12,1,.26,2,.34,2.88s.13,1.68.18,2.4.08,1.35.08,1.89,0,1,0,1.37C269.52,182.59,269.52,183,269.52,183Z" style="fill:#263238"></path><circle cx="201.72" cy="182.97" r="14.27" transform="translate(-55 92.06) rotate(-22.71)" style="fill:#e0e0e0"></circle><path d="M197.52,183.92h0a4,4,0,0,0,5,2.76l49.63-14.08-51.22,6.16A4.05,4.05,0,0,0,197.52,183.92Z" style="fill:#455a64"></path><path d="M227.54,168a.73.73,0,0,1-.1-.19l-.28-.58c-.13-.25-.26-.57-.45-.93L226,165c-.26-.47-.59-1-.93-1.51s-.77-1.11-1.22-1.72a32,32,0,0,0-3.45-3.8A30.24,30.24,0,0,0,209,151.33a27.75,27.75,0,0,0-7.75-1.26,30.17,30.17,0,0,0-16.14,4.3,27.46,27.46,0,0,0-6.1,4.95,30.2,30.2,0,0,0-6.61,11.47,33.23,33.23,0,0,0-1.1,5c-.09.75-.16,1.45-.21,2.09s-.06,1.24-.05,1.77,0,1,0,1.42.05.75.07,1,0,.48.05.64a.63.63,0,0,1,0,.22l0-.22c0-.15,0-.36-.07-.63s-.08-.63-.1-1,0-.88-.06-1.42,0-1.12,0-1.77.11-1.36.19-2.11a31.25,31.25,0,0,1,1.07-5.05,30.18,30.18,0,0,1,6.61-11.58,27.52,27.52,0,0,1,6.15-5,30.26,30.26,0,0,1,16.28-4.33,27.76,27.76,0,0,1,7.81,1.28,30.19,30.19,0,0,1,11.5,6.76A32.78,32.78,0,0,1,224,161.7c.45.61.85,1.19,1.21,1.74s.66,1.05.91,1.52l.66,1.26c.18.37.31.69.43.95l.25.59A1.57,1.57,0,0,1,227.54,168Z" style="fill:#263238"></path><path d="M221.64,166.53a1.86,1.86,0,0,1-.25-.31c-.16-.2-.36-.53-.67-.91A25.36,25.36,0,0,0,218,162.2a25.13,25.13,0,0,0-19.37-7.13,26.31,26.31,0,0,0-6.05,1.13,25.9,25.9,0,0,0-3.86,1.54c-.44.21-.77.41-1,.52a2.06,2.06,0,0,1-.36.17,2,2,0,0,1,.33-.22c.22-.13.54-.34,1-.56a23.7,23.7,0,0,1,3.86-1.64,24.95,24.95,0,0,1,20.69,2.26,25.11,25.11,0,0,1,4.91,3.79,24.05,24.05,0,0,1,2.72,3.18c.29.4.48.73.63.95S221.64,166.53,221.64,166.53Z" style="fill:#263238"></path><path d="M193.6,223.47v2.87H182.09v-2.28l5.87-5.55c1.35-1.28,1.59-2.07,1.59-2.81,0-1.19-.83-1.89-2.44-1.89a3.73,3.73,0,0,0-3.15,1.52l-2.57-1.65a7.08,7.08,0,0,1,6.05-2.83c3.39,0,5.66,1.74,5.66,4.5,0,1.48-.42,2.83-2.55,4.81l-3.5,3.31Z" style="fill:#263238"></path><path d="M206.57,221.56c0,2.69-2,5-6.34,5a10.48,10.48,0,0,1-5.81-1.63l1.4-2.7a7.32,7.32,0,0,0,4.33,1.37c1.76,0,2.85-.73,2.85-2s-.79-2-3.55-2h-3.89l.78-8.57h9.29v2.83h-6.35l-.24,2.89h1.24C204.78,216.83,206.57,218.86,206.57,221.56Z" style="fill:#263238"></path><path d="M220.58,221.53c0,3.12-2.55,5.07-5.77,5.07-4.2,0-6.81-2.63-6.81-7.55,0-5.26,3.18-8.2,7.77-8.2a8.24,8.24,0,0,1,4.24,1l-1.3,2.59a5.07,5.07,0,0,0-2.85-.76c-2.55,0-4.18,1.5-4.29,4.42a5.15,5.15,0,0,1,3.76-1.35C218.27,216.79,220.58,218.66,220.58,221.53Zm-3.42.18a2.3,2.3,0,0,0-2.59-2.29,2.38,2.38,0,0,0-2.63,2.29c0,1.3,1,2.26,2.68,2.26A2.27,2.27,0,0,0,217.16,221.71Z" style="fill:#263238"></path><path d="M194.75,237.75v-6.34l-3.1,5.36h-.27l-3.1-5.34v6.32h-.53v-7.41h.46l3.31,5.73,3.31-5.73h.45v7.41Z" style="fill:#263238"></path><path d="M203.2,235a2.68,2.68,0,0,1-2.74,2.8,2.47,2.47,0,0,1-2.26-1.34v1.3h-.51v-7.86h.53v3.59a2.48,2.48,0,0,1,2.24-1.3A2.68,2.68,0,0,1,203.2,235Zm-.53,0a2.23,2.23,0,1,0-2.24,2.32A2.2,2.2,0,0,0,202.67,235Z" style="fill:#263238"></path><path d="M210.34,235a2.67,2.67,0,0,1-2.73,2.8,2.49,2.49,0,0,1-2.25-1.3v3.31h-.53v-7.58h.51v1.3a2.49,2.49,0,0,1,2.27-1.34A2.67,2.67,0,0,1,210.34,235Zm-.53,0a2.23,2.23,0,1,0-2.23,2.32A2.2,2.2,0,0,0,209.81,235Z" style="fill:#263238"></path><path d="M211.16,237.08l.25-.42a3.2,3.2,0,0,0,2,.67c1.16,0,1.63-.42,1.63-1,0-1.61-3.67-.43-3.67-2.6,0-.83.7-1.51,2.1-1.51a3.41,3.41,0,0,1,1.9.54l-.25.42a2.83,2.83,0,0,0-1.66-.5c-1.08,0-1.56.45-1.56,1,0,1.67,3.67.49,3.67,2.6,0,.9-.78,1.51-2.18,1.51A3.5,3.5,0,0,1,211.16,237.08Z" style="fill:#263238"></path><path d="M77,143.45c-2.62-3.61-10.43-5.85-14.82-5-2.39.44-4.57,1.6-6.85,2.44s-4.84,1.34-7.1.46c7,6.49,20.74,7.26,28.77,2.13" style="fill:#4C3DED"></path></g><g id="freepik--Desk--inject-42"><path d="M685.69,457.56c0,.15-138.83.26-310.05.26s-310.09-.11-310.09-.26,138.81-.26,310.09-.26S685.69,457.42,685.69,457.56Z" style="fill:#263238"></path></g></svg>